<?xml version="1.0" encoding="iso-8859-1"?>
<!-- Generator: Adobe Illustrator 19.0.0, SVG Export Plug-In . SVG Version: 6.00 Build 0)  -->
<svg version="1.1" id="Capa_1" xmlns="http://www.w3.org/2000/svg" xmlns:xlink="http://www.w3.org/1999/xlink" x="0px" y="0px"
	 viewBox="0 0 511.996 511.996" style="enable-background:new 0 0 511.996 511.996;" xml:space="preserve">
<g>
	<g>
		<path d="M511.792,497.346l-34.133-153.6c-0.862-3.9-4.326-6.682-8.329-6.682H435.2v-17.067c0-34.749-26.108-63.499-59.733-67.714
			v-66.72c0-19.977-16.256-36.233-36.232-36.233h-23.501v-51.2c0-51.755-42.112-93.867-93.867-93.867
			c-26.73,0-50.887,11.234-67.999,29.227c-8.221-2.36-16.899-3.627-25.868-3.627c-51.755,0-93.867,42.112-93.867,93.867v25.665
			C15.13,150.489,0,166.292,0,185.564v313.634c0,4.71,3.823,8.533,8.533,8.533H76.8h153.597h0.003h273.063
			c2.594,0,5.043-1.178,6.665-3.2C511.741,502.518,512.355,499.872,511.792,497.346z M418.133,319.998v17.067h-42.667v-67.542
			C399.652,273.597,418.133,294.67,418.133,319.998z M315.733,337.065v-17.067c0-25.329,18.481-46.401,42.667-50.476v67.542H315.733
			z M221.867,21.331c42.342,0,76.8,34.458,76.8,76.8v51.2h-76.8v-25.6c0-36.165-20.566-67.617-50.613-83.287
			C184.781,28.561,202.492,21.331,221.867,21.331z M145.067,149.331v-51.2c0-16.574,5.297-31.926,14.262-44.491
			c26.768,12.015,45.471,38.904,45.471,70.091v25.6H145.067z M128,46.932c4.908,0,9.704,0.482,14.358,1.367
			C133.268,62.749,128,79.836,128,98.131v51.2h-22.639H51.2v-25.6C51.2,81.389,85.658,46.932,128,46.932z M17.067,185.564
			c0-10.564,8.602-19.166,19.166-19.166h37.93c-3.724,5.782-5.896,12.654-5.896,20.028v304.239h-51.2V185.564z M85.333,186.426
			c0-11.042,8.986-20.028,20.028-20.028H128v68.267c0,4.71,3.823,8.533,8.533,8.533s8.533-3.823,8.533-8.533v-68.267h153.6v68.267
			c0,4.71,3.823,8.533,8.533,8.533s8.533-3.823,8.533-8.533v-68.267h23.501c10.564,0,19.166,8.602,19.166,19.166v66.72
			c-33.625,4.215-59.733,32.965-59.733,67.714v17.067H264.53c-3.994,0-7.458,2.782-8.328,6.682l-32.649,146.918H85.333V186.426z
			 M241.038,490.665l30.345-136.533h27.284v59.733c0,4.71,3.823,8.533,8.533,8.533s8.533-3.823,8.533-8.533v-59.733h102.4v59.733
			c0,4.71,3.823,8.533,8.533,8.533s8.533-3.823,8.533-8.533v-59.733h27.286l30.345,136.533H241.038z"/>
	</g>
</g>
<g>
</g>
<g>
</g>
<g>
</g>
<g>
</g>
<g>
</g>
<g>
</g>
<g>
</g>
<g>
</g>
<g>
</g>
<g>
</g>
<g>
</g>
<g>
</g>
<g>
</g>
<g>
</g>
<g>
</g>
</svg>
